<?xml version="1.0" standalone="no"?>
<!DOCTYPE svg PUBLIC "-//W3C//DTD SVG 20010904//EN"
 "http://www.w3.org/TR/2001/REC-SVG-20010904/DTD/svg10.dtd">
<svg version="1.0" xmlns="http://www.w3.org/2000/svg"
 width="775.000000pt" height="775.000000pt" viewBox="0 0 775.000000 775.000000"
 preserveAspectRatio="xMidYMid meet">
<metadata>
Created by potrace 1.14, written by Peter Selinger 2001-2017
</metadata>
<g transform="translate(0.000000,775.000000) scale(0.100000,-0.100000)"
fill="#000000" stroke="none">
<path d="M4035 6589 c-16 -5 -66 -11 -110 -14 -135 -9 -186 -14 -194 -19 -4
-3 -22 -8 -40 -11 -109 -19 -318 -179 -438 -335 -77 -101 -89 -130 -53 -130
11 0 20 -4 20 -9 0 -10 -26 -9 -37 2 -3 4 -19 -5 -34 -19 -29 -27 -29 -44 -1
-77 30 -34 -26 -44 -73 -13 -28 20 -44 20 -415 21 l-385 0 -58 -27 c-67 -32
-228 -138 -223 -147 2 -3 -23 -31 -57 -61 -125 -114 -175 -167 -224 -241 -28
-41 -73 -99 -99 -128 -80 -88 -130 -156 -272 -371 -75 -113 -150 -223 -168
-245 -37 -46 -230 -335 -323 -484 -65 -104 -101 -184 -101 -223 0 -33 47 -106
111 -173 81 -85 242 -284 208 -258 -9 7 -70 66 -136 130 -66 65 -130 123 -144
129 -23 11 -77 30 -110 41 -11 3 -25 -18 -54 -84 -77 -173 -174 -327 -228
-362 -22 -15 -40 -35 -43 -50 -2 -14 -14 -44 -26 -66 -12 -22 -37 -71 -56
-110 -19 -38 -55 -106 -81 -150 -67 -113 -96 -188 -117 -299 -2 -12 -8 -43
-13 -71 -11 -57 -7 -67 13 -39 13 17 15 18 21 2 4 -9 4 -22 0 -28 -11 -17 4
-11 26 11 17 17 20 26 12 39 -9 13 -4 23 21 47 l31 31 1 -35 c1 -24 -2 -31 -9
-24 -17 17 -27 13 -27 -8 0 -11 9 -23 20 -26 11 -3 20 -11 20 -17 0 -6 -6 -5
-16 2 -8 8 -14 9 -13 4 1 -5 -1 -21 -5 -36 -7 -25 -22 -33 -48 -29 -5 0 -8 -4
-8 -9 0 -6 5 -10 11 -10 5 0 7 -5 4 -11 -4 -6 1 -17 11 -24 17 -13 17 -14 2
-15 -9 0 -23 -8 -30 -17 -7 -10 -24 -18 -38 -18 -19 0 -24 -5 -23 -20 2 -11 4
-36 5 -55 3 -34 4 -35 48 -36 59 -1 82 6 76 22 -3 7 -1 16 4 19 5 3 11 -3 15
-14 4 -12 18 -20 43 -23 46 -5 338 -1 374 5 14 3 43 1 65 -5 63 -16 75 -16
143 4 36 10 97 26 135 34 39 9 86 26 105 38 39 24 96 49 151 66 20 6 54 25 75
43 21 18 71 54 109 80 39 25 103 78 143 117 99 96 99 93 -44 255 -29 33 -65
78 -80 100 -15 22 -46 67 -69 100 -109 157 -155 225 -150 225 3 0 24 -26 48
-59 45 -60 113 -143 180 -215 48 -53 37 -19 -18 54 -23 30 -69 96 -103 145
-34 50 -72 101 -84 115 -13 14 -35 43 -50 65 -15 22 -37 54 -49 70 -11 17 18
-10 65 -60 48 -49 94 -102 103 -117 19 -31 38 -38 29 -10 -3 9 4 4 17 -12 12
-16 50 -63 85 -105 35 -42 78 -105 97 -141 33 -65 108 -160 126 -160 6 0 20
-9 32 -21 65 -61 132 -59 176 6 13 19 58 58 101 86 75 50 77 52 114 138 l37
87 74 34 c68 31 72 35 66 59 -4 14 -7 58 -6 96 2 61 -1 77 -27 122 -18 32 -25
54 -18 58 5 3 10 2 10 -2 0 -5 7 -18 15 -29 10 -12 8 -4 -4 26 -11 25 -29 51
-40 59 -12 7 -21 21 -21 30 0 15 -44 89 -60 101 -17 13 -160 339 -160 366 0 3
-14 25 -31 49 -29 40 -77 198 -76 249 1 31 35 -19 97 -139 49 -96 147 -225
171 -225 4 0 14 12 22 26 l13 25 57 -84 c71 -106 74 -113 48 -126 -34 -18 -47
-13 -66 29 -10 22 -22 40 -26 40 -9 0 3 -38 23 -69 11 -17 10 -23 -4 -37 -15
-15 -18 -13 -43 26 -14 23 -28 40 -31 37 -4 -4 44 -97 56 -107 3 -3 17 -20 30
-39 19 -28 21 -37 11 -52 -12 -21 -5 -69 11 -69 5 0 21 -26 35 -57 26 -58 59
-108 71 -108 4 -1 23 -6 42 -12 48 -15 131 -11 155 7 11 9 26 25 33 38 6 12
17 30 23 40 20 31 -6 94 -57 142 -25 23 -44 43 -42 45 2 2 42 -10 88 -26 109
-39 170 -36 223 10 11 9 32 16 49 17 16 1 36 8 44 15 26 26 71 128 69 153 -4
29 6 33 28 11 21 -21 98 -28 120 -11 19 14 42 125 34 158 -5 16 -1 15 25 -4
16 -13 40 -29 51 -35 43 -24 179 -11 199 19 13 21 9 62 -8 86 -16 23 -13 52 5
52 5 0 12 -11 15 -24 8 -33 73 -95 121 -117 84 -38 154 -17 252 78 61 60 92
76 259 137 39 15 79 33 89 40 15 11 25 8 73 -21 52 -31 78 -38 127 -34 45 4
81 23 100 51 12 19 28 30 40 29 56 -4 65 1 73 34 3 17 6 39 6 47 -9 124 -8
133 13 96 8 -17 18 -57 20 -90 4 -59 25 -105 51 -114 7 -2 12 5 12 15 0 14 2
15 9 4 7 -11 19 1 51 50 42 63 42 64 37 26 -3 -20 -16 -51 -28 -68 -20 -29
-21 -31 -3 -26 10 3 37 8 59 12 34 4 230 42 315 61 109 23 165 31 230 33 41 1
78 6 82 10 4 4 19 29 33 56 14 28 23 41 19 30 -13 -41 -23 -90 -18 -94 3 -3
93 -6 201 -7 186 -2 361 -11 374 -20 3 -2 39 -6 80 -9 41 -4 92 -9 114 -11 22
-3 123 -6 224 -9 200 -4 222 0 255 49 14 22 24 26 65 26 33 0 56 -6 74 -20 29
-23 83 -34 93 -19 3 5 14 7 24 4 23 -7 62 8 91 37 23 22 131 107 155 121 6 4
25 3 41 -2 24 -7 42 -3 96 24 86 43 198 125 228 167 31 44 55 64 110 93 91 48
86 130 -14 221 -59 53 -62 54 -70 32 l-8 -23 -19 23 c-22 27 -17 60 6 41 8 -7
17 -10 19 -7 3 2 -20 22 -51 44 -30 21 -83 61 -117 87 -34 27 -77 55 -96 63
-18 8 -51 30 -72 49 -22 19 -43 35 -48 35 -5 0 -40 29 -78 65 -76 72 -197 139
-278 155 -27 5 -88 23 -135 40 -47 18 -110 40 -140 50 -30 10 -73 27 -95 38
-82 41 -261 120 -275 122 -30 5 -50 0 -50 -13 0 -7 -9 -18 -20 -25 -17 -10
-20 -10 -20 3 0 9 -8 18 -17 22 -17 6 -80 33 -95 41 -5 2 -8 -5 -8 -16 0 -20
-25 -37 -40 -27 -4 3 -11 -2 -14 -10 -4 -11 0 -15 11 -13 18 3 20 -11 13 -97
-2 -25 -4 -26 -7 -7 -2 12 -8 22 -13 22 -5 0 -7 -8 -3 -17 3 -10 3 -15 -1 -11
-4 3 -9 25 -11 47 -4 48 -12 64 -30 57 -8 -3 -17 4 -20 15 -8 25 -21 17 -28
-16 -3 -19 -1 -25 9 -21 8 3 14 -1 14 -9 0 -8 -8 -15 -17 -15 -15 0 -16 -2 -3
-10 12 -7 12 -12 2 -22 -6 -6 -12 -8 -12 -3 0 6 -5 3 -10 -5 -9 -13 -11 -13
-19 0 -5 8 -7 19 -3 25 3 5 5 20 3 33 -2 15 3 22 14 22 12 0 15 6 9 23 -3 12
-11 28 -17 35 -8 10 -7 16 2 22 8 4 10 13 7 19 -4 6 -2 11 4 11 8 0 8 6 0 20
-6 11 -15 18 -20 15 -13 -8 -41 6 -34 17 4 6 -2 7 -17 3 -20 -7 -22 -6 -11 7
10 13 1 18 -68 38 -56 16 -84 20 -91 13 -7 -7 -7 -13 -1 -17 18 -11 -10 -77
-37 -87 -29 -12 -45 5 -30 32 5 10 9 21 9 25 0 13 -17 -8 -34 -41 -13 -24 -16
-26 -16 -10 0 29 52 125 64 118 7 -4 8 -3 1 4 -5 6 -37 18 -70 28 -33 9 -68
21 -77 26 -10 5 -35 15 -56 22 l-39 14 3 -36 c2 -20 3 -39 3 -43 1 -4 9 -6 19
-6 9 1 29 -2 45 -5 36 -10 37 -48 2 -71 -14 -9 -23 -21 -20 -26 3 -5 -1 -12
-8 -17 -21 -12 -51 -63 -55 -92 -2 -14 -7 -27 -13 -29 -12 -5 -12 -32 2 -32 5
0 -2 -16 -17 -35 -14 -19 -33 -35 -40 -35 -8 0 -14 -6 -14 -13 0 -8 -11 -19
-25 -25 -33 -15 -36 -15 -29 3 4 9 -4 23 -17 34 l-24 19 43 86 c31 60 42 92
37 108 -5 18 -4 19 4 8 14 -20 32 -1 37 37 4 37 -4 63 -21 63 -9 0 -4 10 12
26 20 20 23 28 13 34 -7 5 -20 6 -28 2 -11 -4 -14 -1 -10 10 9 23 -72 95 -124
108 -66 18 -80 21 -113 25 -64 6 -240 60 -265 81 -8 7 -92 34 -185 60 -154 44
-181 48 -290 50 -66 2 -133 -2 -150 -7z m27 -151 c4 -7 8 -17 8 -22 0 -4 7 -6
15 -2 8 3 15 1 15 -4 0 -6 -2 -10 -4 -10 -2 0 -11 -3 -19 -6 -10 -3 -17 2 -20
13 -4 14 -5 14 -6 -4 -1 -21 -6 -23 -50 -23 -58 0 -72 -13 -76 -72 -2 -24 -4
-47 -5 -53 -1 -5 -10 24 -20 65 -18 74 -18 75 2 88 12 9 18 22 15 33 -6 22 13
25 44 9 15 -8 21 -7 25 4 4 11 13 12 37 5 17 -5 34 -14 39 -21z m-247 -122 c4
-26 3 -52 -4 -63 -6 -10 -11 -12 -11 -5 0 7 -17 29 -37 49 l-36 37 29 13 c46
19 52 16 59 -31z m-245 -72 c11 -35 6 -49 -19 -49 -29 0 -53 51 -31 65 20 12
43 5 50 -16z m-76 -137 c2 -23 0 -51 -4 -62 -7 -19 -7 -19 -17 0 -6 11 -16 46
-23 77 -11 47 -11 60 0 73 12 14 15 12 27 -15 7 -18 14 -50 17 -73z m1113 41
c-3 -8 -6 -5 -6 6 -1 11 2 17 5 13 3 -3 4 -12 1 -19z m31 -12 c-7 -8 -15 -12
-17 -11 -5 6 10 25 20 25 5 0 4 -6 -3 -14z m-1348 -217 c12 -21 0 -32 -24 -23
-9 3 -15 16 -14 29 2 26 23 23 38 -6z m1267 -25 c2 -10 6 -37 10 -59 3 -22 10
-46 15 -52 17 -21 1 -58 -40 -90 l-39 -31 -2 51 c-4 78 -7 96 -14 103 -4 4 -7
-6 -8 -22 -1 -58 -11 -179 -15 -183 -3 -3 -14 -6 -25 -8 -27 -4 -35 23 -17 56
13 22 21 50 33 126 1 6 3 29 3 53 2 38 4 42 20 33 15 -8 22 -4 36 20 19 33 37
34 43 3z m721 -335 c-2 -21 0 -39 4 -39 5 0 8 26 8 57 0 40 3 54 10 47 21 -21
10 -217 -12 -230 -7 -5 -9 1 -5 16 4 15 3 20 -4 13 -6 -6 -12 -30 -15 -54 -16
-146 -41 -271 -61 -303 -15 -24 -53 -142 -53 -166 0 -14 -6 -36 -14 -50 -7
-14 -23 -44 -35 -67 -36 -67 -50 -73 -40 -16 5 27 11 57 13 68 2 11 9 39 15
63 12 45 13 133 0 153 -5 8 -12 8 -28 -1 -22 -11 -22 -11 -16 62 7 99 10 106
41 100 24 -4 26 -8 21 -45 -6 -41 10 -40 16 0 4 26 12 36 31 39 10 1 13 -9 10
-40 l-4 -41 13 45 c6 25 12 62 12 83 0 20 3 38 7 38 5 1 13 2 19 3 13 1 29 37
22 49 -2 4 1 24 8 45 12 34 17 86 20 202 0 36 3 41 11 26 5 -10 8 -35 6 -57z
m-2817 11 c10 0 19 -4 19 -10 0 -5 -7 -10 -16 -10 -8 0 -22 -7 -30 -15 -20
-20 -31 -19 -44 5 -9 16 -6 22 17 34 16 8 30 10 31 5 2 -5 12 -9 23 -9z m4077
-2 c18 -18 15 -49 -3 -42 -11 5 -15 -1 -15 -25 0 -42 -28 -122 -87 -251 -104
-227 -167 -313 -240 -329 -47 -10 -47 -9 -2 49 38 48 161 298 195 394 8 22 21
50 29 62 7 12 17 39 21 60 3 21 8 48 10 58 2 11 9 23 16 28 19 12 62 10 76 -4z
m-4271 -22 c23 -6 45 -15 49 -19 4 -4 16 -7 26 -7 10 0 18 -5 18 -11 0 -8 5
-8 15 1 12 10 15 9 15 -5 0 -14 -6 -16 -39 -10 -53 9 -78 -7 -92 -57 -15 -57
-38 -84 -68 -80 -28 4 -53 -22 -44 -46 4 -10 2 -13 -6 -8 -15 10 -61 -33 -61
-56 0 -21 -16 -24 -23 -5 -3 6 -6 -7 -6 -30 -1 -41 -15 -65 -24 -41 -2 7 -8
10 -12 6 -5 -4 8 -34 28 -65 25 -40 32 -61 25 -68 -7 -7 -12 -6 -15 2 -2 7
-29 51 -60 98 -31 47 -53 88 -50 92 4 3 15 -5 26 -18 l20 -24 -3 47 c-2 45 -2
46 21 37 21 -8 24 -6 21 12 -2 15 8 25 42 43 26 13 51 35 60 52 8 16 18 31 23
32 4 2 4 8 1 13 -3 6 0 17 7 25 16 20 2 31 -21 16 -18 -11 -20 -9 -20 16 0 20
8 32 30 45 17 10 30 23 30 29 0 6 9 8 23 3 12 -4 41 -12 64 -19z m1741 7 c5
-10 15 -42 21 -72 6 -29 22 -86 35 -125 14 -39 27 -91 31 -116 4 -25 9 -53 11
-62 8 -29 -13 -20 -25 10 -9 21 -10 -4 -7 -108 2 -82 1 -117 -4 -90 -4 25 -15
63 -24 84 -9 21 -19 62 -22 90 -3 28 -14 103 -25 168 -28 172 -24 284 9 221z
m2102 -208 c-10 -12 -9 -15 4 -15 9 0 16 5 16 11 0 12 25 39 35 39 13 0 -7
-74 -26 -98 -10 -13 -16 -28 -13 -33 3 -5 2 -18 -1 -29 -10 -32 -123 -181
-182 -238 -29 -29 -60 -64 -69 -78 -14 -20 -44 -34 -44 -20 0 14 89 170 122
214 21 29 36 57 32 63 -3 6 1 18 9 27 8 9 33 53 55 97 21 44 44 79 50 78 7 -2
12 3 13 10 0 9 2 9 6 -1 3 -7 -1 -19 -7 -27z m636 -120 c-21 -49 -20 -52 4
-24 18 22 21 22 30 7 6 -10 18 -14 31 -11 18 5 20 3 15 -18 l-7 -24 20 25 21
25 -5 -35 c-9 -50 -22 -60 -46 -31 l-20 24 -6 -21 c-6 -25 -21 -29 -29 -8 -3
9 -14 13 -27 10 -12 -3 -26 -6 -32 -7 -5 -2 -16 -7 -24 -12 -10 -5 -16 -4 -19
3 -2 6 -10 8 -18 5 -22 -8 -17 8 20 63 24 35 44 54 68 61 18 5 34 9 36 7 2 -1
-4 -19 -12 -39z m-843 15 c-3 -11 -9 -20 -13 -20 -5 0 -18 -15 -30 -32 -18
-29 -20 -30 -14 -8 3 14 13 37 21 53 16 32 44 38 36 7z m-3975 -164 c35 -42
55 -73 45 -70 -21 8 -72 62 -114 121 -31 45 -41 83 -11 46 9 -12 45 -56 80
-97z m2881 75 c6 -20 13 -49 16 -66 4 -16 15 -66 27 -109 15 -61 17 -84 9
-103 -6 -13 -11 -34 -11 -47 0 -17 -7 -25 -25 -29 -26 -4 -26 -4 -20 52 3 31
8 70 11 86 l5 30 -15 -30 c-13 -27 -53 -134 -59 -161 -1 -5 -13 -26 -25 -45
-18 -28 -22 -30 -22 -13 0 12 5 35 11 52 6 17 9 37 7 44 -3 7 -14 -14 -25 -47
-10 -32 -22 -55 -25 -50 -3 6 14 64 38 130 25 66 45 127 45 135 3 40 -12 135
-21 138 -6 2 -6 10 0 21 5 10 7 21 4 24 -12 11 5 22 35 23 28 1 32 -3 40 -35z
m207 -3 c-3 -24 -11 -59 -18 -78 l-11 -34 -13 44 c-7 24 -12 44 -11 45 14 2
42 25 43 34 3 28 4 31 10 31 3 0 3 -19 0 -42z m-1935 -236 c26 -54 41 -115 26
-105 -7 4 -8 0 -2 -13 21 -51 37 -114 41 -162 2 -29 11 -78 19 -109 16 -63 4
-99 -15 -47 -6 16 -26 67 -44 114 -18 47 -39 116 -46 154 -7 38 -23 98 -36
134 -13 36 -24 73 -24 83 0 15 4 16 30 6 21 -8 37 -26 51 -55z m-101 -57 c71
-183 87 -232 94 -285 4 -28 -2 -20 -29 39 -19 40 -35 79 -35 85 0 6 -9 22 -20
36 -11 14 -20 32 -20 40 0 9 -7 26 -16 38 -20 28 -25 71 -11 97 11 21 8 26 37
-50z m-801 -54 c37 -79 83 -163 87 -159 2 3 -2 18 -10 34 -35 70 -73 175 -63
171 12 -4 84 -169 117 -270 16 -47 34 -73 92 -133 40 -41 78 -74 86 -74 7 0
15 -8 19 -17 3 -10 13 -26 21 -35 13 -16 13 -18 -4 -25 -11 -3 -23 -12 -27
-20 -15 -25 -19 -22 -232 154 -22 18 -58 48 -80 65 -23 19 -41 44 -43 58 -2
14 -12 34 -23 46 -22 24 -24 43 -5 69 12 17 18 11 74 -73 61 -90 100 -132 69
-76 -38 73 -117 286 -117 319 0 24 20 7 39 -34z m743 -173 c8 -13 27 -54 43
-93 15 -38 33 -81 40 -95 7 -14 16 -36 20 -50 10 -37 -31 24 -85 125 -24 44
-47 85 -52 92 -5 7 -5 14 2 18 6 3 8 11 5 16 -13 20 14 7 27 -13z m26 -228
c17 -27 27 -52 21 -55 -5 -4 -9 -2 -9 4 0 6 -17 37 -37 68 -20 32 -30 52 -21
46 8 -7 29 -35 46 -63z m-58 -18 c0 -13 -3 -12 -15 4 -19 25 -19 40 0 24 8 -7
15 -20 15 -28z m30 -52 c0 -5 -4 -10 -10 -10 -5 0 -10 5 -10 10 0 6 5 10 10
10 6 0 10 -4 10 -10z m-44 -17 c22 -30 16 -52 -6 -24 -20 23 -26 41 -14 41 4
0 13 -8 20 -17z m-657 -67 c14 -14 31 -26 38 -26 11 0 10 -5 -3 -25 -15 -23
-15 -27 0 -50 18 -28 21 -39 6 -30 -15 9 -54 72 -78 128 -18 41 -19 46 -4 38
9 -5 28 -21 41 -35z m-892 -228 c-1 -18 -2 -18 -14 -1 -7 10 -17 23 -22 29
-16 19 1 25 20 8 10 -9 17 -25 16 -36z m71 -37 c12 -11 22 -25 22 -32 0 -8 -7
-6 -20 6 -11 10 -20 15 -20 10 0 -4 -7 -2 -15 5 -8 7 -12 16 -9 21 8 13 16 11
42 -10z m234 -111 c42 -33 78 -63 80 -68 1 -4 38 -37 81 -72 42 -34 77 -65 77
-68 0 -2 -15 -2 -32 2 -18 3 -28 2 -23 -2 32 -25 86 -90 72 -88 -9 1 -24 10
-35 19 -10 9 -23 17 -29 17 -6 0 -13 7 -17 15 -3 8 -11 15 -18 15 -13 0 -64
69 -60 82 1 3 -20 23 -46 44 -26 21 -53 44 -59 50 -7 7 -22 10 -33 7 -27 -7
-108 18 -115 35 -4 11 4 12 37 7 24 -3 52 -9 63 -11 11 -3 16 -2 10 3 -18 14
-95 110 -95 118 0 4 15 -4 33 -19 17 -14 66 -53 109 -86z m301 -240 c9 0 17
-4 17 -8 0 -13 88 -52 117 -52 25 0 26 -1 8 -19 -17 -20 -18 -20 -56 5 -21 13
-41 24 -44 24 -11 0 -94 65 -95 74 0 5 8 2 18 -7 10 -10 26 -17 35 -17z m-823
-45 c13 -14 21 -25 18 -25 -2 0 -15 11 -28 25 -13 14 -21 25 -18 25 2 0 15
-11 28 -25z m50 -67 c15 -21 17 -28 6 -19 -16 13 -41 51 -33 51 2 0 14 -15 27
-32z m-377 -261 c20 -28 55 -77 77 -107 22 -30 51 -79 65 -107 16 -32 42 -64
65 -80 22 -16 42 -35 45 -43 12 -33 101 -73 190 -87 35 -5 71 -33 43 -33 -9 0
-47 7 -85 16 -37 9 -78 17 -90 18 -25 3 -93 48 -135 89 -29 29 -37 43 -17 31
7 -4 1 7 -11 25 -22 29 -30 52 -31 92 0 16 -43 64 -57 64 -4 0 -8 7 -9 15 -1
8 -7 16 -12 18 -6 2 -11 9 -11 15 0 7 -13 21 -28 31 -25 17 -61 96 -43 96 3 0
23 -24 44 -53z m-264 -46 c0 -14 -1 -14 -6 -1 -3 8 -10 24 -15 35 -9 20 -9 20
6 1 9 -11 16 -27 15 -35z m151 -181 c4 0 20 -19 36 -42 16 -24 32 -44 37 -46
4 -2 7 -11 7 -20 -1 -14 -3 -14 -15 3 -35 47 -73 90 -112 127 -23 22 -47 53
-54 69 -6 16 -15 29 -20 29 -5 0 -9 7 -9 16 0 9 27 -18 61 -60 33 -42 64 -76
69 -76z m131 33 c13 -16 12 -17 -3 -4 -10 7 -18 15 -18 17 0 8 8 3 21 -13z
m125 -100 c-3 -3 -20 9 -38 27 l-33 32 38 -27 c21 -15 35 -30 33 -32z m-133
-77 c3 3 16 -1 29 -10 12 -9 29 -16 38 -17 17 -1 96 -86 87 -95 -8 -8 -48 15
-84 49 -40 38 -44 17 -5 -23 26 -26 27 -27 7 -27 -13 0 -29 12 -41 31 -52 84
-83 147 -50 104 7 -10 16 -15 19 -12z m-353 -81 c5 -14 15 -25 22 -25 7 0 28
-21 46 -45 29 -37 38 -43 60 -39 24 5 30 1 50 -40 25 -53 29 -79 7 -50 -13 17
-14 17 -15 2 0 -9 5 -20 10 -23 16 -10 1 -25 -20 -22 -42 7 -88 58 -138 156
-44 84 -52 111 -35 111 2 0 8 -11 13 -25z m130 -67 c0 -9 6 -19 13 -21 8 -4 7
-6 -3 -6 -16 -1 -43 53 -32 64 8 7 22 -16 22 -37z"/>
<path d="M4722 4850 c0 -14 2 -19 5 -12 2 6 2 18 0 25 -3 6 -5 1 -5 -13z"/>
<path d="M7536 4655 c-15 -14 -26 -31 -26 -36 0 -6 -9 -8 -19 -4 -13 4 -27 -2
-40 -17 -16 -17 -24 -19 -33 -10 -20 20 -48 14 -88 -18 -21 -16 -41 -30 -45
-30 -3 0 -16 -8 -29 -17 -22 -16 -22 -18 -7 -61 12 -33 33 -59 81 -100 36 -30
69 -64 75 -76 5 -11 14 -24 20 -28 5 -4 6 -8 1 -8 -10 0 -72 45 -98 71 -9 9
-44 38 -77 64 l-61 46 -47 -14 c-47 -13 -48 -14 -46 -49 2 -40 66 -153 116
-205 27 -29 29 -33 11 -33 -11 0 -30 7 -42 16 -25 18 -132 148 -132 162 0 16
-34 40 -53 37 -61 -10 -59 -34 9 -137 24 -37 44 -71 44 -76 0 -18 80 -93 149
-141 l75 -51 12 36 c24 70 24 80 3 105 -17 20 -18 25 -5 27 8 2 26 -4 40 -13
24 -16 27 -16 53 4 16 12 38 30 51 39 31 24 62 114 63 189 1 42 6 64 15 67 8
3 14 12 14 21 0 8 6 15 14 15 19 0 26 21 14 42 -8 17 25 115 44 129 14 9 4 60
-14 70 -13 7 -23 3 -42 -16z"/>
<path d="M5433 4324 c-3 -10 -1 -30 5 -47 l11 -29 -22 18 c-12 11 -28 25 -35
32 -17 16 -18 15 -123 -85 -93 -90 -120 -132 -123 -195 -1 -22 -9 -43 -17 -48
-7 -5 -14 -20 -14 -32 0 -20 -4 -22 -30 -19 -16 1 -38 7 -48 13 -10 5 -25 7
-32 4 -12 -4 -12 -10 0 -40 14 -33 12 -66 -4 -66 -4 0 -34 18 -66 41 -43 30
-60 37 -66 28 -10 -17 22 -74 73 -133 25 -28 12 -38 -28 -21 -18 8 -50 22 -69
30 l-35 15 0 -40 c0 -22 -4 -40 -9 -40 -4 0 -50 20 -102 44 -52 24 -96 40 -99
36 -3 -4 -4 -40 -4 -79 1 -52 7 -79 23 -107 12 -20 20 -38 18 -41 -3 -2 -39
12 -81 31 -54 25 -78 32 -82 23 -2 -7 12 -57 31 -112 20 -55 38 -113 41 -130
3 -16 14 -63 24 -103 23 -91 15 -87 -17 10 -34 103 -33 101 -38 96 -5 -5 19
-113 50 -227 21 -77 12 -75 -16 3 -13 36 -29 66 -36 66 -7 0 -13 6 -13 14 0 7
-6 36 -14 62 -8 27 -19 76 -25 108 -6 34 -19 67 -30 77 -11 10 -25 27 -33 37
-7 11 -27 26 -44 35 -30 16 -33 15 -132 -34 -82 -40 -105 -48 -121 -39 -28 14
-31 13 -31 -12 0 -44 -13 -52 -63 -39 -25 6 -48 11 -51 11 -11 0 -5 -35 9 -60
9 -18 10 -29 3 -38 -8 -9 -20 -3 -54 28 -48 44 -51 45 -124 29 -55 -12 -56
-13 -34 -91 3 -11 0 -18 -9 -18 -8 0 -17 9 -20 20 -7 27 -39 25 -73 -3 -38
-33 -37 -106 1 -179 15 -29 34 -75 42 -102 8 -28 45 -112 81 -186 51 -106 90
-196 92 -216 0 -1 -6 -4 -14 -7 -9 -4 -31 21 -63 71 -80 124 -93 148 -93 175
0 35 -13 67 -43 101 -14 16 -25 41 -25 55 0 14 -21 68 -46 119 -45 88 -49 93
-65 78 -22 -20 -37 -20 -45 0 -5 13 -15 15 -54 9 -26 -4 -87 -9 -136 -10 -60
-2 -92 -8 -98 -17 -8 -12 -3 -166 7 -228 3 -14 -2 -5 -10 19 -12 37 -19 96
-24 204 -1 10 -9 17 -22 17 -15 0 -19 -5 -15 -18 13 -39 16 -113 5 -107 -7 5
-9 -7 -6 -34 4 -42 -7 -66 -17 -34 -5 19 -27 127 -30 153 -1 8 -5 17 -9 18 -7
3 -63 -4 -112 -15 -31 -6 -195 -24 -245 -26 -25 -1 -50 -5 -56 -9 -6 -4 -33
-10 -60 -13 -67 -8 -197 -36 -209 -44 -5 -4 -36 -18 -69 -31 -32 -13 -81 -38
-107 -57 -46 -31 -49 -32 -49 -12 0 19 -3 18 -37 -10 -21 -17 -43 -31 -51 -31
-7 0 -31 -17 -55 -38 -23 -21 -58 -45 -77 -53 -37 -15 -42 -16 -77 -18 -32 -1
-59 -47 -62 -101 -1 -9 -26 -25 -62 -39 -42 -16 -63 -30 -69 -47 -9 -22 -20
-29 -42 -25 -5 0 -8 -2 -8 -7 0 -4 -11 -8 -25 -8 -43 -3 -151 -80 -170 -122
-10 -20 -27 -47 -38 -60 -21 -23 -27 -71 -14 -122 21 -83 33 -151 27 -155 -3
-2 -7 5 -7 16 -3 34 -33 128 -43 134 -16 10 -12 -27 11 -95 14 -43 17 -66 10
-73 -12 -12 -27 21 -36 84 -8 52 -38 114 -60 123 -27 10 -52 7 -64 -8 -6 -7
-33 -19 -59 -26 -26 -7 -51 -17 -57 -21 -5 -5 -24 -9 -42 -9 -17 0 -36 -6 -40
-14 -4 -7 -40 -30 -80 -50 -39 -19 -74 -40 -78 -45 -3 -6 -7 -45 -9 -88 -3
-73 -26 -163 -48 -190 -14 -18 0 -37 17 -23 10 8 16 7 23 -7 8 -13 25 -18 64
-20 83 -3 118 -14 156 -50 31 -28 66 -45 172 -80 41 -14 80 -29 86 -34 7 -5
30 -11 52 -12 22 -1 49 -10 60 -20 10 -9 25 -17 33 -17 8 0 48 -12 89 -25 41
-14 118 -34 170 -45 72 -15 115 -31 175 -65 44 -25 83 -45 87 -45 5 0 27 -8
51 -19 46 -20 152 -53 326 -102 84 -23 115 -28 121 -19 5 8 12 7 24 -6 15 -15
22 -15 59 -4 54 16 184 21 217 8 40 -16 60 -19 159 -23 l93 -5 -6 65 c-4 41
-2 66 5 70 14 9 20 2 21 -26 1 -34 23 -82 48 -104 16 -15 38 -19 93 -20 40 -1
104 -10 144 -20 81 -21 144 -16 275 25 55 17 69 25 74 45 3 14 7 25 8 25 4 0
137 -39 139 -41 4 -4 82 41 105 60 25 21 21 43 -12 71 -9 7 -16 20 -16 29 1
13 3 13 15 -3 8 -11 15 -15 15 -9 0 10 -43 67 -96 127 -30 33 -103 146 -110
169 -3 12 -12 29 -19 37 -6 8 -18 31 -25 50 -7 19 -25 49 -40 65 -27 29 -70
140 -70 178 0 18 1 18 18 1 9 -10 33 -43 52 -74 42 -68 88 -122 125 -146 23
-15 28 -15 36 -3 5 8 9 20 9 27 0 7 25 -15 55 -49 30 -34 55 -65 55 -69 0 -14
-36 -39 -46 -32 -6 4 -17 18 -23 30 -7 13 -15 21 -18 19 -3 -3 3 -19 13 -35
10 -18 14 -37 10 -48 -7 -17 -10 -16 -31 11 -13 16 -26 27 -29 24 -3 -2 17
-31 45 -63 49 -57 58 -76 39 -76 -16 0 -12 -18 9 -39 11 -11 27 -34 36 -51 22
-43 82 -100 105 -100 10 0 21 -4 24 -9 3 -4 25 -11 48 -14 33 -4 69 3 170 38
99 34 128 40 128 29 0 -29 31 -27 63 4 25 24 40 31 72 30 22 0 63 7 90 16 67
23 281 131 390 198 50 30 108 58 130 62 21 4 66 21 99 38 33 17 80 36 105 44
66 19 125 61 156 110 19 30 38 47 64 55 20 6 47 18 61 27 14 9 39 17 55 19 60
7 183 63 229 105 10 9 33 24 51 32 18 9 52 41 76 72 24 30 58 72 75 92 39 46
62 90 72 139 7 36 10 38 53 44 45 7 77 33 205 170 5 6 28 26 51 47 30 27 43
48 48 77 4 22 18 51 30 65 59 65 71 112 54 200 -8 40 -23 73 -50 109 -21 28
-31 46 -21 40 9 -6 30 -29 45 -51 29 -42 85 -73 102 -57 5 5 8 25 7 44 -3 39
3 43 28 20 16 -14 19 -13 42 17 38 51 48 74 48 113 l0 37 50 -4 c82 -7 80 9
-8 126 -92 122 -113 146 -125 146 -11 0 -25 15 -62 65 -17 22 -38 49 -49 60
-42 45 -123 186 -97 171 5 -3 28 -37 51 -76 23 -39 47 -73 52 -76 18 -12 19 5
1 23 -33 34 -55 74 -48 91 6 15 8 16 18 1 35 -47 86 -107 120 -140 20 -21 37
-48 37 -60 0 -14 20 -41 53 -72 78 -73 134 -107 179 -107 37 0 38 1 32 28 -4
15 -15 44 -24 65 -19 39 -15 39 35 2 17 -12 37 -24 47 -28 18 -6 48 21 48 44
0 14 38 76 88 144 12 17 24 48 27 70 6 35 2 44 -24 73 -21 22 -39 32 -59 32
-23 0 -48 18 -121 88 -50 48 -91 93 -91 100 0 6 28 -16 63 -51 34 -35 82 -78
107 -97 41 -31 39 -28 -20 34 -36 37 -102 105 -147 151 -46 46 -83 89 -83 95
0 5 -6 10 -12 10 -7 0 -22 14 -33 30 -19 28 -35 36 -60 30 -5 -2 -41 -4 -78
-5 -37 -1 -70 -5 -73 -8 -3 -3 -27 1 -52 8 -42 13 -50 12 -89 -5 -24 -11 -43
-26 -43 -34 0 -13 -15 -16 -90 -16 -82 0 -96 3 -148 31 -60 32 -80 37 -175 46
-53 5 -59 4 -64 -16 -6 -24 -11 -25 -36 -6 -23 17 -45 10 -73 -23 l-22 -25
-58 32 c-68 37 -85 38 -124 9 -27 -20 -32 -20 -72 -8 -24 8 -45 14 -48 15 -3
1 -18 7 -33 13 -39 17 -67 15 -74 -4z m1405 -319 c-3 -3 -9 2 -12 12 -6 14 -5
15 5 6 7 -7 10 -15 7 -18z m-746 -159 c16 -29 -7 -11 -33 27 l-23 32 23 -20
c13 -11 27 -28 33 -39z m465 -171 c37 -55 77 -113 90 -128 37 -45 94 -148 91
-164 -2 -12 -9 -10 -31 7 -20 16 -25 25 -18 34 8 9 4 19 -14 36 -29 27 -130
178 -193 287 -80 137 -36 96 75 -72z m-304 -35 c21 -38 35 -70 32 -70 -3 0 -1
-9 5 -21 7 -11 10 -23 7 -25 -2 -2 -17 22 -32 53 -16 31 -45 73 -65 94 -32 33
-61 89 -60 115 1 19 77 -78 113 -146z m892 134 c13 -14 14 -19 3 -25 -8 -6
-18 -3 -25 8 -25 33 -8 46 22 17z m-1640 -79 c35 -24 74 -58 89 -76 14 -17 52
-50 85 -74 43 -31 60 -51 64 -74 4 -19 13 -31 22 -31 10 0 15 -7 13 -17 -3
-15 -13 -18 -52 -15 -62 3 -99 21 -164 82 -30 27 -62 52 -73 55 -23 8 -25 23
-3 32 10 4 24 -4 40 -23 13 -16 23 -24 24 -17 0 6 -4 15 -10 18 -5 3 -10 11
-10 18 0 8 3 8 12 -1 7 -7 20 -12 29 -12 10 0 20 -6 22 -12 3 -7 6 -8 6 -3 1
9 -53 71 -142 163 -43 44 -26 40 48 -13z m634 -45 c11 -24 11 -24 -3 -6 -9 11
-16 24 -16 30 0 12 5 7 19 -24z m200 -209 c0 -10 -4 -7 -10 8 -5 14 -13 30
-17 36 -4 6 1 2 11 -8 9 -11 17 -27 16 -36z m-3563 -393 c-19 -233 -19 -239
-2 -251 13 -10 14 -18 5 -47 -15 -51 -12 -115 10 -195 20 -72 19 -94 -4 -75
-8 7 -18 9 -24 6 -12 -8 -21 17 -28 83 -3 31 -9 61 -14 67 -4 5 -8 41 -7 80 0
38 -3 98 -7 134 -13 119 -8 196 17 240 14 24 30 40 42 40 17 0 18 -6 12 -82z
m1965 -167 c42 -51 53 -72 54 -103 1 -21 -1 -38 -4 -38 -8 1 -61 74 -93 129
-27 46 -88 202 -88 224 0 6 18 -25 40 -68 22 -44 63 -109 91 -144z m1050 182
c0 -5 2 -18 5 -30 2 -15 -1 -22 -8 -20 -7 1 -14 -9 -16 -23 -2 -14 -9 -29 -15
-35 -6 -5 -8 -6 -5 -1 4 5 -2 22 -13 38 -22 30 -19 72 3 50 18 -18 28 -15 28
8 0 18 19 30 21 13z m106 -77 c-3 -18 -16 -23 -48 -18 -28 4 -32 17 -6 17 7 0
12 7 13 15 2 31 4 33 24 15 10 -9 18 -22 17 -29z m-3027 -31 c-6 -15 -6 -27 0
-30 6 -4 7 -13 2 -23 -5 -9 -9 -61 -8 -114 1 -67 -2 -94 -9 -88 -7 6 -10 54
-9 127 3 186 2 177 18 163 11 -8 12 -18 6 -35z m3247 -68 c15 6 44 -22 134
-135 86 -107 73 -123 -19 -22 -42 46 -94 102 -114 123 -21 22 -38 42 -38 45 0
3 5 1 11 -5 6 -6 18 -9 26 -6z m-117 -89 c32 -54 52 -83 103 -150 40 -52 29
-73 -13 -28 -19 19 -30 30 -26 23 4 -7 0 -25 -8 -40 -12 -24 -12 -31 0 -48 17
-23 19 -44 3 -28 -6 6 -18 9 -26 6 -8 -3 -20 3 -28 13 -16 21 -19 12 -15 -35
1 -18 -2 -22 -13 -18 -9 3 -21 -1 -28 -9 -7 -9 -21 -13 -30 -11 -10 3 -20 -1
-23 -9 -3 -8 -12 -14 -20 -14 -12 0 -35 -24 -87 -88 -5 -7 -7 -17 -4 -23 4 -6
-1 -16 -10 -23 -9 -7 -16 -20 -14 -29 4 -15 7 -16 33 -2 37 20 36 20 36 -18 0
-29 -5 -34 -50 -55 -27 -13 -50 -27 -50 -31 0 -18 -31 -20 -67 -4 -21 8 -53
18 -72 20 -19 3 -51 11 -72 18 -20 8 -39 11 -42 9 -2 -2 -10 2 -17 11 -11 14
-14 13 -26 -2 -8 -11 -13 -13 -14 -5 0 6 -8 12 -17 12 -12 0 -8 5 11 15 28 15
66 12 66 -5 0 -4 24 -2 53 6 51 13 87 42 87 71 0 21 30 76 53 96 16 13 30 16
61 12 37 -6 43 -4 64 24 12 17 18 31 12 31 -5 0 -10 4 -10 9 0 5 8 7 18 4 10
-2 26 5 36 16 11 12 25 21 33 21 8 0 19 14 24 30 12 33 38 41 40 13 1 -10 5 9
10 41 5 32 11 61 14 64 3 3 14 -3 25 -13 20 -18 20 -17 20 7 0 13 -18 51 -41
83 -37 53 -44 85 -20 85 5 0 24 -24 41 -52z m-3103 20 c-3 -8 -6 -5 -6 6 -1
11 2 17 5 13 3 -3 4 -12 1 -19z m-794 -298 c31 0 35 -6 41 -53 9 -75 28 -147
38 -147 6 0 5 -6 -2 -15 -11 -13 -10 -21 0 -43 8 -15 13 -31 11 -35 -1 -5 3
-6 8 -3 5 4 13 1 16 -5 4 -5 13 -8 21 -5 14 5 15 -14 2 -24 -4 -3 -3 -12 2
-20 8 -12 13 -13 30 -2 17 10 20 10 20 -3 0 -9 9 -15 24 -15 14 0 28 -5 31
-10 4 -6 10 -8 15 -5 15 10 22 -39 10 -70 -11 -27 -13 -29 -24 -13 -15 21 -73
18 -87 -3 -9 -15 -13 -6 -10 24 2 11 -5 17 -18 17 -12 0 -21 4 -21 8 0 5 -6
16 -13 26 -12 17 -15 17 -50 -3 -31 -17 -41 -19 -57 -9 -23 14 -24 22 -10 48
6 11 6 21 1 24 -5 3 -7 24 -4 46 4 24 -1 54 -11 80 -9 22 -15 46 -13 53 1 6
-5 11 -14 11 -13 -1 -15 7 -12 40 4 49 7 71 18 110 7 26 9 27 20 13 7 -10 24
-17 38 -17z m710 -100 c-3 -12 -8 -19 -11 -16 -5 6 5 36 12 36 2 0 2 -9 -1
-20z m2586 -203 c6 -8 8 -17 4 -20 -3 -4 4 -7 17 -7 23 0 23 0 4 -15 -10 -8
-26 -15 -35 -15 -9 0 -22 -7 -29 -15 -11 -14 -14 -13 -25 1 -6 10 -16 14 -22
11 -6 -4 -19 0 -29 8 -17 13 -17 14 -2 15 26 0 88 32 82 42 -9 14 23 9 35 -5z
m-3414 -144 c7 -32 9 -60 5 -63 -4 -3 -10 -15 -14 -27 -10 -30 -24 -29 -36 2
-5 14 -16 28 -24 31 -8 3 -14 13 -14 22 1 9 -2 26 -5 37 -5 14 -1 24 13 33 25
15 40 8 40 -19 0 -11 4 -18 9 -15 5 3 5 22 1 42 -6 27 -5 33 3 25 6 -6 16 -37
22 -68z m289 -59 c5 -14 4 -15 -9 -4 -17 14 -19 20 -6 20 5 0 12 -7 15 -16z"/>
<path d="M597 2107 c-172 -49 -183 -57 -143 -118 20 -29 45 -48 104 -76 80
-39 89 -42 160 -47 27 -3 45 0 46 8 2 6 9 31 15 56 7 25 17 77 22 115 8 65 7
71 -12 88 -12 9 -26 17 -33 16 -6 0 -78 -20 -159 -42z"/>
</g>
</svg>
