<?xml version="1.0" encoding="UTF-8"?>
<svg id="Layer_3" data-name="Layer 3" xmlns="http://www.w3.org/2000/svg" viewBox="0 0 41 41.15">
  <defs>
    <style>
      .cls-1 {
        fill: none;
        stroke: #fff;
        stroke-miterlimit: 10;
      }
    </style>
  </defs>
  <path class="cls-1" d="m1.95,11.16c0,16.22,12.87,29.38,28.75,29.38h4.31c2.38,0,4.31-1.97,4.31-4.41v-2.69c0-1.01-.67-1.89-1.63-2.14l-8.48-2.17c-.85-.21-1.74.11-2.25.82l-1.86,2.53c-.54.74-1.47,1.06-2.32.74-6.35-2.39-11.36-7.5-13.69-13.99-.31-.86,0-1.82.73-2.37l2.48-1.9c.7-.54,1.01-1.44.8-2.3l-2.12-8.66c-.23-.97-1.09-1.66-2.09-1.67h-2.63c-2.38,0-4.31,1.97-4.31,4.41v4.41h0Z"/>
</svg>