<svg width="37.375" xmlns="http://www.w3.org/2000/svg" height="38.187" viewBox="3148.312 2713.406 37.375 38.187" fill="none"><path d="M3148.312 2722.219c0 16.223 12.873 29.375 28.751 29.375h4.312c2.382 0 4.312-1.973 4.312-4.407v-2.686c0-1.011-.672-1.892-1.633-2.137l-8.477-2.166a2.131 2.131 0 0 0-2.248.817l-1.859 2.532c-.541.736-1.474 1.061-2.319.744-6.351-2.385-11.356-7.5-13.691-13.988-.311-.864.007-1.818.728-2.37l2.478-1.899a2.228 2.228 0 0 0 .8-2.298l-2.12-8.661a2.166 2.166 0 0 0-2.091-1.669h-2.63c-2.382 0-4.313 1.973-4.313 4.406v4.407Z" style="fill: none;" class="fills"/><g stroke-linejoin="round" class="strokes"><g class="inner-stroke-shape"><defs><clipPath id="b"><use href="#a"/></clipPath><path d="M3148.312 2722.219c0 16.223 12.873 29.375 28.751 29.375h4.312c2.382 0 4.312-1.973 4.312-4.407v-2.686c0-1.011-.672-1.892-1.633-2.137l-8.477-2.166a2.131 2.131 0 0 0-2.248.817l-1.859 2.532c-.541.736-1.474 1.061-2.319.744-6.351-2.385-11.356-7.5-13.691-13.988-.311-.864.007-1.818.728-2.37l2.478-1.899a2.228 2.228 0 0 0 .8-2.298l-2.12-8.661a2.166 2.166 0 0 0-2.091-1.669h-2.63c-2.382 0-4.313 1.973-4.313 4.406v4.407Z" id="a" style="fill: none; stroke-width: 4; stroke: rgb(255, 255, 255); stroke-opacity: 1;"/></defs><use href="#a" clip-path="url('#b')"/></g></g></svg>