<?xml version="1.0" encoding="UTF-8"?>
<svg id="Layer_1" data-name="Layer 1" xmlns="http://www.w3.org/2000/svg" viewBox="0 0 37.7 37.73">
  <defs>
    <style>
      .cls-1 {
        fill-rule: evenodd;
      }

      .cls-1, .cls-2 {
        fill: none;
        stroke: #fff;
        stroke-miterlimit: 10;
      }
    </style>
  </defs>
  <path class="cls-2" d="m.71,37.02l2.62-9.73c-2.11-3.79-2.78-8.22-1.89-12.46.9-4.25,3.29-8.03,6.76-10.65C15.36-1.25,25.42-.6,31.82,5.7c6.4,6.29,7.18,16.34,1.84,23.55-2.59,3.49-6.35,5.93-10.59,6.88-4.24.95-8.69.33-12.52-1.72,0,0-9.84,2.62-9.84,2.62Zm10.32-6.27l.61.36c2.77,1.64,6.01,2.32,9.21,1.93,3.2-.39,6.18-1.82,8.48-4.08,4.73-4.63,5.73-11.87,2.44-17.61-1.6-2.79-4.08-4.98-7.05-6.22-2.97-1.24-6.28-1.46-9.39-.64-3.11.83-5.87,2.66-7.83,5.21-1.96,2.55-3.02,5.68-3.02,8.89,0,2.67.74,5.28,2.14,7.55l.38.63-1.47,5.43s5.5-1.46,5.5-1.46Z"/>
  <path class="cls-1" d="m25.8,21.1c-.72-.58-1.67-.8-2.58-.59-.67.28-1.1,1.33-1.54,1.85-.19.26-.54.34-.82.19-2.45-.96-4.51-2.72-5.84-4.99-.24-.29-.2-.72.09-.97.48-.48.84-1.07,1.03-1.72.04-.72-.12-1.43-.47-2.06-.27-.88-.79-1.66-1.5-2.25-.74-.33-1.61-.2-2.22.34-1.04.9-1.62,2.22-1.58,3.6,0,.38.05.76.14,1.13.24.89.61,1.74,1.09,2.52.35.6.73,1.18,1.14,1.74,1.34,1.84,3.03,3.4,4.96,4.59.97.61,2.01,1.1,3.1,1.47,1.13.51,2.37.71,3.6.57,1.42-.21,2.64-1.12,3.26-2.42.18-.39.23-.82.15-1.23-.19-.85-1.33-1.36-2.03-1.77Z"/>
</svg>