<?xml version="1.0" encoding="utf-8"?>
<!-- Generator: Adobe Illustrator 27.3.1, SVG Export Plug-In . SVG Version: 6.00 Build 0)  -->
<svg version="1.1" id="Layer_1" xmlns="http://www.w3.org/2000/svg" xmlns:xlink="http://www.w3.org/1999/xlink" x="0px" y="0px"
	 viewBox="0 0 38.8 39.3" style="enable-background:new 0 0 38.8 39.3;" xml:space="preserve">
<style type="text/css">
	.st0{display:none;fill-rule:evenodd;clip-rule:evenodd;fill:#2800B4;stroke:#FFFFFF;stroke-miterlimit:10;}
	.st1{fill:none;stroke:#FFFFFF;stroke-miterlimit:10;}
	.st2{fill-rule:evenodd;clip-rule:evenodd;fill:#FFFFFF;}
</style>
<g>
	<rect x="-1.3" y="-0.6" class="st0" width="42.1" height="40.4"/>
	<path class="st1" d="M9.1,35.5L9.9,36c3.5,2.1,7.7,3,11.8,2.5c4.1-0.5,7.9-2.3,10.8-5.2c6-5.9,7.3-15.2,3.1-22.5
		c-2-3.6-5.2-6.4-9-8c-3.8-1.6-8-1.9-12-0.8c-4,1.1-7.5,3.4-10,6.7C2.1,11.9,0.7,15.9,0.7,20c0,3.4,0.9,6.8,2.7,9.7l0.5,0.8
		l-1.9,6.9C2.1,37.4,9.1,35.5,9.1,35.5z"/>
	<path class="st2" d="M25.9,29.7c-1.1,0-2.2-0.2-3.2-0.7l-0.1-0.1c-1.4-0.5-2.8-1.1-4-1.9c-2.6-1.6-4.7-3.6-6.5-6
		c-0.5-0.7-1.1-1.5-1.5-2.3c-0.6-1-1.1-2-1.4-3.1C9,15.2,9,14.8,9,14.4c0-1.4,0.5-2.8,1.6-3.7c0.2-0.2,0.5-0.3,0.7-0.3
		c0.1,0,0.2,0,0.2,0c0.6,0.6,1.1,1.3,1.3,2.1l0,0.1L13,13c0.3,0.5,0.5,1.2,0.4,1.8c-0.2,0.4-0.5,0.9-0.9,1.3c-1,0.9-1.2,2.6-0.4,3.7
		c2,3.5,5.3,6.2,9.1,7.7c0.3,0.2,0.8,0.3,1.2,0.3c0.9,0,1.7-0.4,2.2-1.1c0.2-0.2,0.4-0.6,0.6-0.9c0.1-0.2,0.5-0.8,0.7-1
		c0.1,0,0.2,0,0.3,0c0.5,0,1.1,0.2,1.5,0.5l0.1,0.1l0.6,0.4c1.3,0.7,1.5,1,1.5,1c0,0.2,0,0.4-0.1,0.6c-0.6,1.3-1.8,2.2-3.2,2.4
		C26.5,29.6,26.2,29.7,25.9,29.7z"/>
</g>
</svg>
